<?xml version="1.0" encoding="UTF-8" standalone="no"?>
<svg width="60px" height="20px" viewBox="0 0 60 20" version="1.1" xmlns="http://www.w3.org/2000/svg" xmlns:xlink="http://www.w3.org/1999/xlink">
    <!-- Generator: Sketch 50.2 (55047) - http://www.bohemiancoding.com/sketch -->
    <title>Group 5</title>
    <desc>Created with Sketch.</desc>
    <defs></defs>
    <g id="Page-1" stroke="none" stroke-width="1" fill="none" fill-rule="evenodd">
        <g id="居中排版-半透明状态-白字" transform="translate(-691.000000, -12.000000)" fill="#FF0000">
            <g id="Group-5" transform="translate(691.000000, 12.000000)">
                <polygon id="Fill-1" points="0 1.02238227 0 6.10714681 6.80424024 6.10714681 6.80424024 18.7054848 12.8924703 18.7054848 12.8924703 6.10714681 19.6859919 6.10714681 19.6859919 1.02238227"></polygon>
                <path d="M31.6097047,15.0617175 C30.1959062,15.0617175 29.1358253,14.645097 28.2322376,13.7763989 C27.3575905,12.9342936 26.7176832,11.6279224 26.7176832,9.87058172 L26.7176832,9.60022161 C26.7176832,7.84620499 27.3575905,6.53096953 28.2322376,5.68775623 C29.1358253,4.81795014 30.2044812,4.41351801 31.6129203,4.41351801 C34.9282189,4.41351801 35.6367259,6.4500831 35.8511002,7.78747922 L41.2479732,7.78747922 C41.1193486,5.10382271 39.8770495,3.20908587 38.1277553,1.94260388 C36.3902516,0.694958449 34.3579832,0.0556232687 31.6718733,0.0556232687 C28.3683653,0.0556232687 26.0081043,0.815734072 24.0851668,2.5065928 C22.1397201,4.22958449 21.1021485,6.95091413 21.1021485,9.66559557 L21.1021485,9.80631579 C21.1021485,12.7725208 22.0057361,15.0074238 23.9972734,16.8744598 C25.8634016,18.6229363 28.5805959,19.4229363 31.6000579,19.4185042 C34.2829522,19.4185042 36.5821166,18.7647645 38.171702,17.5248753 C39.9252838,16.1586704 41.1268517,14.2340166 41.2694106,11.6999446 L35.8843282,11.6999446 C35.7342662,12.7680886 35.0889996,15.0617175 31.6097047,15.0617175" id="Fill-2"></path>
                <polygon id="Fill-5" points="50.3878214 13.8589474 50.3878214 1.0268144 44.5246843 1.0268144 44.5246843 18.7043767 59.9885744 18.7043767 59.9885744 13.8589474"></polygon>
            </g>
        </g>
    </g>
</svg>